<mxfile host="Electron" agent="Mozilla/5.0 (Windows NT 10.0; Win64; x64) AppleWebKit/537.36 (KHTML, like Gecko) draw.io/28.1.2 Chrome/138.0.7204.243 Electron/37.4.0 Safari/537.36" version="28.1.2">
  <diagram name="PÃ¡gina-1" id="nv1DpmzHjEilt64TxZ-8">
    <mxGraphModel dx="1028" dy="595" grid="1" gridSize="10" guides="1" tooltips="1" connect="1" arrows="1" fold="1" page="1" pageScale="1" pageWidth="827" pageHeight="1169" math="0" shadow="0">
      <root>
        <mxCell id="0" />
        <mxCell id="1" parent="0" />
        <mxCell id="uYy-2Ne1ByD9VkuLvJ_A-46" value="" style="shape=ext;double=1;rounded=0;whiteSpace=wrap;html=1;" vertex="1" parent="1">
          <mxGeometry x="110" y="150" width="720" height="610" as="geometry" />
        </mxCell>
        <mxCell id="uYy-2Ne1ByD9VkuLvJ_A-41" value="" style="shape=ext;double=1;rounded=0;whiteSpace=wrap;html=1;" vertex="1" parent="1">
          <mxGeometry x="650" y="280" width="145" height="460" as="geometry" />
        </mxCell>
        <mxCell id="uYy-2Ne1ByD9VkuLvJ_A-39" value="" style="shape=ext;double=1;rounded=0;whiteSpace=wrap;html=1;" vertex="1" parent="1">
          <mxGeometry x="480" y="278" width="170" height="462" as="geometry" />
        </mxCell>
        <mxCell id="uYy-2Ne1ByD9VkuLvJ_A-34" value="" style="shape=ext;double=1;rounded=0;whiteSpace=wrap;html=1;shadow=0;" vertex="1" parent="1">
          <mxGeometry x="300" y="278" width="180" height="462" as="geometry" />
        </mxCell>
        <mxCell id="uYy-2Ne1ByD9VkuLvJ_A-23" value="" style="shape=ext;double=1;rounded=0;whiteSpace=wrap;html=1;" vertex="1" parent="1">
          <mxGeometry x="120" y="280" width="180" height="460" as="geometry" />
        </mxCell>
        <mxCell id="uYy-2Ne1ByD9VkuLvJ_A-6" value="" style="edgeStyle=orthogonalEdgeStyle;rounded=0;orthogonalLoop=1;jettySize=auto;html=1;" edge="1" parent="1" source="uYy-2Ne1ByD9VkuLvJ_A-1" target="uYy-2Ne1ByD9VkuLvJ_A-2">
          <mxGeometry relative="1" as="geometry" />
        </mxCell>
        <mxCell id="uYy-2Ne1ByD9VkuLvJ_A-1" value="" style="sketch=0;outlineConnect=0;fontColor=#232F3E;gradientColor=none;fillColor=#232F3D;strokeColor=none;dashed=0;verticalLabelPosition=bottom;verticalAlign=top;align=center;html=1;fontSize=12;fontStyle=0;aspect=fixed;pointerEvents=1;shape=mxgraph.aws4.client;" vertex="1" parent="1">
          <mxGeometry x="20" y="550" width="80" height="77.95" as="geometry" />
        </mxCell>
        <mxCell id="uYy-2Ne1ByD9VkuLvJ_A-9" style="edgeStyle=orthogonalEdgeStyle;rounded=0;orthogonalLoop=1;jettySize=auto;html=1;" edge="1" parent="1" source="uYy-2Ne1ByD9VkuLvJ_A-2">
          <mxGeometry relative="1" as="geometry">
            <mxPoint x="209" y="420" as="targetPoint" />
          </mxGeometry>
        </mxCell>
        <mxCell id="uYy-2Ne1ByD9VkuLvJ_A-2" value="" style="sketch=0;points=[[0,0,0],[0.25,0,0],[0.5,0,0],[0.75,0,0],[1,0,0],[0,1,0],[0.25,1,0],[0.5,1,0],[0.75,1,0],[1,1,0],[0,0.25,0],[0,0.5,0],[0,0.75,0],[1,0.25,0],[1,0.5,0],[1,0.75,0]];outlineConnect=0;fontColor=#232F3E;fillColor=#7AA116;strokeColor=#ffffff;dashed=0;verticalLabelPosition=bottom;verticalAlign=top;align=center;html=1;fontSize=12;fontStyle=0;aspect=fixed;shape=mxgraph.aws4.resourceIcon;resIcon=mxgraph.aws4.s3;" vertex="1" parent="1">
          <mxGeometry x="170" y="550" width="78" height="78" as="geometry" />
        </mxCell>
        <mxCell id="uYy-2Ne1ByD9VkuLvJ_A-4" value="Amazon Simple Storage&amp;nbsp;&lt;div&gt;Service (Amazon S3)&lt;/div&gt;" style="text;html=1;align=center;verticalAlign=middle;resizable=0;points=[];autosize=1;strokeColor=#666666;fillColor=#f5f5f5;shadow=0;fontColor=#333333;" vertex="1" parent="1">
          <mxGeometry x="128" y="635" width="160" height="40" as="geometry" />
        </mxCell>
        <mxCell id="uYy-2Ne1ByD9VkuLvJ_A-5" value="Cliente" style="text;html=1;align=center;verticalAlign=middle;resizable=0;points=[];autosize=1;strokeColor=#666666;fillColor=#f5f5f5;fontColor=#333333;" vertex="1" parent="1">
          <mxGeometry x="29" y="640" width="60" height="30" as="geometry" />
        </mxCell>
        <mxCell id="uYy-2Ne1ByD9VkuLvJ_A-13" value="" style="edgeStyle=orthogonalEdgeStyle;rounded=0;orthogonalLoop=1;jettySize=auto;html=1;" edge="1" parent="1" source="uYy-2Ne1ByD9VkuLvJ_A-7" target="uYy-2Ne1ByD9VkuLvJ_A-12">
          <mxGeometry relative="1" as="geometry" />
        </mxCell>
        <mxCell id="uYy-2Ne1ByD9VkuLvJ_A-7" value="" style="sketch=0;points=[[0,0,0],[0.25,0,0],[0.5,0,0],[0.75,0,0],[1,0,0],[0,1,0],[0.25,1,0],[0.5,1,0],[0.75,1,0],[1,1,0],[0,0.25,0],[0,0.5,0],[0,0.75,0],[1,0.25,0],[1,0.5,0],[1,0.75,0]];outlineConnect=0;fontColor=#232F3E;fillColor=#ED7100;strokeColor=#ffffff;dashed=0;verticalLabelPosition=bottom;verticalAlign=top;align=center;html=1;fontSize=12;fontStyle=0;aspect=fixed;shape=mxgraph.aws4.resourceIcon;resIcon=mxgraph.aws4.lambda;" vertex="1" parent="1">
          <mxGeometry x="171" y="290" width="78" height="78" as="geometry" />
        </mxCell>
        <mxCell id="uYy-2Ne1ByD9VkuLvJ_A-10" value="AWS Lambda" style="text;html=1;align=center;verticalAlign=middle;resizable=0;points=[];autosize=1;strokeColor=#666666;fillColor=#f5f5f5;fontColor=#333333;" vertex="1" parent="1">
          <mxGeometry x="160" y="378" width="100" height="30" as="geometry" />
        </mxCell>
        <mxCell id="uYy-2Ne1ByD9VkuLvJ_A-11" value="Requerimento" style="text;html=1;align=center;verticalAlign=middle;resizable=0;points=[];autosize=1;strokeColor=#666666;fillColor=#f5f5f5;fontColor=#333333;" vertex="1" parent="1">
          <mxGeometry x="160" y="248" width="100" height="30" as="geometry" />
        </mxCell>
        <mxCell id="uYy-2Ne1ByD9VkuLvJ_A-28" value="" style="edgeStyle=orthogonalEdgeStyle;rounded=0;orthogonalLoop=1;jettySize=auto;html=1;" edge="1" parent="1" source="uYy-2Ne1ByD9VkuLvJ_A-12" target="uYy-2Ne1ByD9VkuLvJ_A-27">
          <mxGeometry relative="1" as="geometry">
            <Array as="points">
              <mxPoint x="510" y="330" />
              <mxPoint x="510" y="330" />
            </Array>
          </mxGeometry>
        </mxCell>
        <mxCell id="uYy-2Ne1ByD9VkuLvJ_A-12" value="" style="sketch=0;points=[[0,0,0],[0.25,0,0],[0.5,0,0],[0.75,0,0],[1,0,0],[0,1,0],[0.25,1,0],[0.5,1,0],[0.75,1,0],[1,1,0],[0,0.25,0],[0,0.5,0],[0,0.75,0],[1,0.25,0],[1,0.5,0],[1,0.75,0]];outlineConnect=0;fontColor=#232F3E;fillColor=#ED7100;strokeColor=#ffffff;dashed=0;verticalLabelPosition=bottom;verticalAlign=top;align=center;html=1;fontSize=12;fontStyle=0;aspect=fixed;shape=mxgraph.aws4.resourceIcon;resIcon=mxgraph.aws4.fargate;" vertex="1" parent="1">
          <mxGeometry x="349" y="288" width="80" height="80" as="geometry" />
        </mxCell>
        <mxCell id="uYy-2Ne1ByD9VkuLvJ_A-14" value="Preparar" style="text;html=1;align=center;verticalAlign=middle;resizable=0;points=[];autosize=1;strokeColor=#666666;fillColor=#f5f5f5;fontColor=#333333;" vertex="1" parent="1">
          <mxGeometry x="354" y="248" width="70" height="30" as="geometry" />
        </mxCell>
        <mxCell id="uYy-2Ne1ByD9VkuLvJ_A-26" value="" style="edgeStyle=orthogonalEdgeStyle;rounded=0;orthogonalLoop=1;jettySize=auto;html=1;" edge="1" parent="1" source="uYy-2Ne1ByD9VkuLvJ_A-17">
          <mxGeometry relative="1" as="geometry">
            <mxPoint x="390" y="540" as="targetPoint" />
            <Array as="points">
              <mxPoint x="390" y="440" />
              <mxPoint x="390" y="440" />
            </Array>
          </mxGeometry>
        </mxCell>
        <mxCell id="uYy-2Ne1ByD9VkuLvJ_A-17" value="AWS Fargate" style="text;html=1;align=center;verticalAlign=middle;resizable=0;points=[];autosize=1;strokeColor=#666666;fillColor=#f5f5f5;fontColor=#333333;" vertex="1" parent="1">
          <mxGeometry x="339" y="378" width="100" height="30" as="geometry" />
        </mxCell>
        <mxCell id="uYy-2Ne1ByD9VkuLvJ_A-18" value="" style="sketch=0;points=[[0,0,0],[0.25,0,0],[0.5,0,0],[0.75,0,0],[1,0,0],[0,1,0],[0.25,1,0],[0.5,1,0],[0.75,1,0],[1,1,0],[0,0.25,0],[0,0.5,0],[0,0.75,0],[1,0.25,0],[1,0.5,0],[1,0.75,0]];outlineConnect=0;fontColor=#232F3E;fillColor=#ED7100;strokeColor=#ffffff;dashed=0;verticalLabelPosition=bottom;verticalAlign=top;align=center;html=1;fontSize=12;fontStyle=0;aspect=fixed;shape=mxgraph.aws4.resourceIcon;resIcon=mxgraph.aws4.ecr;" vertex="1" parent="1">
          <mxGeometry x="346" y="550" width="78" height="78" as="geometry" />
        </mxCell>
        <mxCell id="uYy-2Ne1ByD9VkuLvJ_A-19" value="Amazon Elastic Container&amp;nbsp;&lt;div&gt;Registry (Amazon ECR)&lt;/div&gt;" style="text;html=1;align=center;verticalAlign=middle;resizable=0;points=[];autosize=1;strokeColor=#666666;fillColor=#f5f5f5;fontColor=#333333;" vertex="1" parent="1">
          <mxGeometry x="309" y="635" width="160" height="40" as="geometry" />
        </mxCell>
        <mxCell id="uYy-2Ne1ByD9VkuLvJ_A-37" value="" style="edgeStyle=orthogonalEdgeStyle;rounded=0;orthogonalLoop=1;jettySize=auto;html=1;" edge="1" parent="1" source="uYy-2Ne1ByD9VkuLvJ_A-27" target="uYy-2Ne1ByD9VkuLvJ_A-36">
          <mxGeometry relative="1" as="geometry" />
        </mxCell>
        <mxCell id="uYy-2Ne1ByD9VkuLvJ_A-27" value="" style="sketch=0;points=[[0,0,0],[0.25,0,0],[0.5,0,0],[0.75,0,0],[1,0,0],[0,1,0],[0.25,1,0],[0.5,1,0],[0.75,1,0],[1,1,0],[0,0.25,0],[0,0.5,0],[0,0.75,0],[1,0.25,0],[1,0.5,0],[1,0.75,0]];outlineConnect=0;fontColor=#232F3E;fillColor=#E7157B;strokeColor=#ffffff;dashed=0;verticalLabelPosition=bottom;verticalAlign=top;align=center;html=1;fontSize=12;fontStyle=0;aspect=fixed;shape=mxgraph.aws4.resourceIcon;resIcon=mxgraph.aws4.step_functions;" vertex="1" parent="1">
          <mxGeometry x="520" y="288" width="78" height="78" as="geometry" />
        </mxCell>
        <mxCell id="uYy-2Ne1ByD9VkuLvJ_A-29" value="AWS Step Functions" style="text;html=1;align=center;verticalAlign=middle;resizable=0;points=[];autosize=1;strokeColor=#666666;fillColor=#f5f5f5;fontColor=#333333;" vertex="1" parent="1">
          <mxGeometry x="494" y="378" width="130" height="30" as="geometry" />
        </mxCell>
        <mxCell id="uYy-2Ne1ByD9VkuLvJ_A-30" value="" style="sketch=0;points=[[0,0,0],[0.25,0,0],[0.5,0,0],[0.75,0,0],[1,0,0],[0,1,0],[0.25,1,0],[0.5,1,0],[0.75,1,0],[1,1,0],[0,0.25,0],[0,0.5,0],[0,0.75,0],[1,0.25,0],[1,0.5,0],[1,0.75,0]];outlineConnect=0;fontColor=#232F3E;fillColor=#ED7100;strokeColor=#ffffff;dashed=0;verticalLabelPosition=bottom;verticalAlign=top;align=center;html=1;fontSize=12;fontStyle=0;aspect=fixed;shape=mxgraph.aws4.resourceIcon;resIcon=mxgraph.aws4.ec2;" vertex="1" parent="1">
          <mxGeometry x="520" y="549.95" width="78" height="78" as="geometry" />
        </mxCell>
        <mxCell id="uYy-2Ne1ByD9VkuLvJ_A-32" value="" style="edgeStyle=orthogonalEdgeStyle;rounded=0;orthogonalLoop=1;jettySize=auto;html=1;" edge="1" parent="1">
          <mxGeometry relative="1" as="geometry">
            <mxPoint x="560" y="410" as="sourcePoint" />
            <mxPoint x="560" y="540" as="targetPoint" />
            <Array as="points">
              <mxPoint x="560" y="462" />
              <mxPoint x="560" y="462" />
            </Array>
          </mxGeometry>
        </mxCell>
        <mxCell id="uYy-2Ne1ByD9VkuLvJ_A-33" value="Amazon Elastic Computer&lt;div&gt;Cloud (Amazon EC2)&lt;/div&gt;" style="text;html=1;align=center;verticalAlign=middle;resizable=0;points=[];autosize=1;strokeColor=#666666;fillColor=#f5f5f5;fontColor=#333333;" vertex="1" parent="1">
          <mxGeometry x="490" y="635" width="160" height="40" as="geometry" />
        </mxCell>
        <mxCell id="uYy-2Ne1ByD9VkuLvJ_A-35" value="Executar" style="text;html=1;align=center;verticalAlign=middle;resizable=0;points=[];autosize=1;strokeColor=#666666;fillColor=#f5f5f5;fontColor=#333333;" vertex="1" parent="1">
          <mxGeometry x="524" y="248" width="70" height="30" as="geometry" />
        </mxCell>
        <mxCell id="uYy-2Ne1ByD9VkuLvJ_A-36" value="" style="sketch=0;points=[[0,0,0],[0.25,0,0],[0.5,0,0],[0.75,0,0],[1,0,0],[0,1,0],[0.25,1,0],[0.5,1,0],[0.75,1,0],[1,1,0],[0,0.25,0],[0,0.5,0],[0,0.75,0],[1,0.25,0],[1,0.5,0],[1,0.75,0]];points=[[0,0,0],[0.25,0,0],[0.5,0,0],[0.75,0,0],[1,0,0],[0,1,0],[0.25,1,0],[0.5,1,0],[0.75,1,0],[1,1,0],[0,0.25,0],[0,0.5,0],[0,0.75,0],[1,0.25,0],[1,0.5,0],[1,0.75,0]];outlineConnect=0;fontColor=#232F3E;fillColor=#E7157B;strokeColor=#ffffff;dashed=0;verticalLabelPosition=bottom;verticalAlign=top;align=center;html=1;fontSize=12;fontStyle=0;aspect=fixed;shape=mxgraph.aws4.resourceIcon;resIcon=mxgraph.aws4.cloudwatch_2;" vertex="1" parent="1">
          <mxGeometry x="690" y="288" width="78" height="78" as="geometry" />
        </mxCell>
        <mxCell id="uYy-2Ne1ByD9VkuLvJ_A-38" value="Amazon CloudWatch" style="text;html=1;align=center;verticalAlign=middle;resizable=0;points=[];autosize=1;strokeColor=#666666;fillColor=#f5f5f5;fontColor=#333333;" vertex="1" parent="1">
          <mxGeometry x="650" y="378" width="140" height="30" as="geometry" />
        </mxCell>
        <mxCell id="uYy-2Ne1ByD9VkuLvJ_A-40" value="Log" style="text;html=1;align=center;verticalAlign=middle;resizable=0;points=[];autosize=1;strokeColor=#666666;fillColor=#f5f5f5;fontColor=#333333;" vertex="1" parent="1">
          <mxGeometry x="710" y="248" width="40" height="30" as="geometry" />
        </mxCell>
        <mxCell id="uYy-2Ne1ByD9VkuLvJ_A-45" value="AWS Cloud" style="sketch=0;outlineConnect=0;fontColor=#232F3E;gradientColor=none;strokeColor=#232F3E;fillColor=#ffffff;dashed=0;verticalLabelPosition=bottom;verticalAlign=top;align=center;html=1;fontSize=12;fontStyle=0;aspect=fixed;shape=mxgraph.aws4.resourceIcon;resIcon=mxgraph.aws4.aws_cloud;" vertex="1" parent="1">
          <mxGeometry x="120" y="160" width="60" height="60" as="geometry" />
        </mxCell>
      </root>
    </mxGraphModel>
  </diagram>
</mxfile>
